<svg xmlns="http://www.w3.org/2000/svg" width="300.729" height="111.339" viewBox="0 0 300.729 111.339">
  <g id="Group_1" data-name="Group 1" transform="translate(-409.111 -171.661)">
    <path id="Path_12" data-name="Path 12" d="M-2.616,0C16-2.5,71.84,0,71.84,0V10H-2.616S-21.23,2.5-2.616,0Z" transform="translate(626 216.216)" fill="#161a26"/>
    <path id="Path_2" data-name="Path 2" d="M-1.58,0C19.366-2.5,82.2,0,82.2,0V10H-1.58S-22.525,2.5-1.58,0Z" transform="translate(433.797 173)" fill="#161a26"/>
    <path id="Path_1" data-name="Path 1" d="M0,0H59V10S21.178,12.5,6.428,10,0,0,0,0Z" transform="translate(434.019 174) rotate(90)" fill="#161a26"/>
    <path id="Path_3" data-name="Path 3" d="M-1.58,0C19.366-2.5,82.2,0,82.2,0V10H-1.58S-22.525,2.5-1.58,0Z" transform="translate(433.797 223)" fill="#161a26"/>
    <path id="Path_4" data-name="Path 4" d="M0,0H59V10S21.178,12.5,6.428,10,0,0,0,0Z" transform="translate(518 223) rotate(90)" fill="#161a26"/>
    <path id="Path_5" data-name="Path 5" d="M0,0C24.5-2.5,98,0,98,0V10H0S-24.5,2.5,0,0Z" transform="translate(420 273)" fill="#161a26"/>
    <path id="Path_6" data-name="Path 6" d="M.214,0C25.2-2.5,100.142,0,100.142,0V10H.214S-24.768,2.5.214,0Z" transform="matrix(0.017, 1, -1, 0.017, 537.202, 182.698)" fill="#161a26"/>
    <path id="Path_7" data-name="Path 7" d="M70-36.76c.892-.091-46.7,5.352-48.1,8.914C18.37-18.819,9.18-.649,13.049-.784,43.639-1.849,98,0,98,0V10H0S3.5-26.974,18.768-36.76C19.3-37.1,77.684-46.841,82.731-46.877,96.435-46.975,67.536-36.508,70-36.76Z" transform="translate(625.111 181.889) rotate(180)" fill="#161a26"/>
    <path id="Path_8" data-name="Path 8" d="M70-36.76c.892-.091-46.7,5.352-48.1,8.914C18.37-18.819,9.18-.649,13.049-.784,43.639-1.849,98,0,98,0V10H0S3.5-26.974,18.768-36.76C19.3-37.1,77.684-46.841,82.731-46.877,96.435-46.975,67.536-36.508,70-36.76Z" transform="translate(625.111 181.889) rotate(180)" fill="#161a26"/>
    <path id="Path_9" data-name="Path 9" d="M70,3.363c.892.1-46.7-5.751-48.1-9.578-3.537-9.7-12.727-29.221-8.858-29.076C43.639-34.146,98-36.133,98-36.133V-46.877H0S3.5-7.151,18.768,3.363c.536.37,58.915,10.831,63.963,10.87C96.435,14.339,67.536,3.093,70,3.363Z" transform="translate(625.111 236.123) rotate(180)" fill="#161a26"/>
    <path id="Path_10" data-name="Path 10" d="M.214,0C25.2-2.5,100.142,0,100.142,0V10H.214S-24.768,2.5.214,0Z" transform="matrix(0.017, 1, -1, 0.017, 637.202, 182.698)" fill="#161a26"/>
    <path id="Path_11" data-name="Path 11" d="M-2.616,0C16-2.5,71.84,0,71.84,0V10H-2.616S-21.23,2.5-2.616,0Z" transform="translate(638 173)" fill="#161a26"/>
  </g>
</svg>
