<svg xmlns="http://www.w3.org/2000/svg" width="103.475" height="44.208" viewBox="0 0 103.475 44.208">
  <g id="Group_4" data-name="Group 4" transform="translate(-10.786 -9.587)">
    <g id="Path_1" data-name="Path 1" transform="translate(19.665 11.889) rotate(90)" fill="#8cc63e">
      <path d="M 11.7545108795166 7.256794452667236 C 8.130010604858398 7.256794452667236 5.419830799102783 7.00253438949585 3.6992506980896 6.501084327697754 C 2.092000722885132 6.03266429901123 1.079190731048584 5.264764308929443 0.6889606714248657 4.218704700469971 C 0.1434563398361206 2.756456613540649 0.9129666686058044 1.097121357917786 1.237470388412476 0.5000044703483582 L 24.40339088439941 0.5000044703483582 L 24.40339088439941 6.531982898712158 C 22.7909984588623 6.700393199920654 17.06128311157227 7.256794452667236 11.7545108795166 7.256794452667236 Z" stroke="none"/>
      <path d="M 1.544645309448242 1.000004291534424 C 1.223995208740234 1.667835712432861 0.7488574981689453 2.948758125305176 1.157421112060547 4.043944358825684 C 1.489471435546875 4.934024810791016 2.391731262207031 5.599214553833008 3.839151382446289 6.021054267883301 C 5.514270782470703 6.509254455566406 8.177380561828613 6.756794452667236 11.7545108795166 6.756794452667236 C 16.62646484375 6.756794452667236 21.86052894592285 6.285264015197754 23.90339088439941 6.080508232116699 L 23.90339088439941 1.000004291534424 L 1.544645309448242 1.000004291534424 M 0.9497203826904297 4.76837158203125e-06 L 24.90339088439941 4.76837158203125e-06 L 24.90339088439941 6.981114387512207 C 24.90339088439941 6.981114387512207 9.547760963439941 8.726384162902832 3.559350967407227 6.981114387512207 C -2.429069519042969 5.235834121704102 0.9497203826904297 4.76837158203125e-06 0.9497203826904297 4.76837158203125e-06 Z" stroke="none" fill="#707070"/>
    </g>
    <g id="Group_3" data-name="Group 3">
      <g id="Path_12" data-name="Path 12" transform="translate(91.684 25.452)" fill="#8cc63e">
        <path d="M 9.811623573303223 6.840584754943848 L -8.526687622070312 6.840584754943848 C -9.043544769287109 6.16625452041626 -10.77432632446289 3.730277538299561 -10.31320667266846 1.91026496887207 C -10.11933612823486 1.145094990730286 -9.553606986999512 0.5851749181747437 -8.583676338195801 0.1985049396753311 C -7.236086368560791 -0.3387150764465332 -4.920756340026855 -0.611115038394928 -1.702006578445435 -0.611115038394928 C 3.012444496154785 -0.611115038394928 8.286075592041016 -0.011379050090909 9.811623573303223 0.1751008927822113 L 9.811623573303223 6.840584754943848 Z" stroke="none"/>
        <path d="M -1.702005624771118 -0.1111149787902832 C -5.631895542144775 -0.1111149787902832 -7.512725353240967 0.3098349571228027 -8.398525238037109 0.6629648208618164 C -9.208595275878906 0.9859051704406738 -9.676265716552734 1.433714866638184 -9.828245162963867 2.03198504447937 C -10.17344665527344 3.390854120254517 -9.007367134094238 5.354339599609375 -8.280747413635254 6.340584754943848 L 9.311624526977539 6.340584754943848 L 9.311624526977539 0.6187705993652344 C 7.390490531921387 0.3933424949645996 2.609222412109375 -0.1111149787902832 -1.702005624771118 -0.1111149787902832 M -1.702000737190247 -1.111114025115967 C 3.951598167419434 -1.111114025115967 10.31162452697754 -0.2659449577331543 10.31162452697754 -0.2659449577331543 L 10.31162452697754 7.340584754943848 L -8.768835067749023 7.340584754943848 C -8.768835067749023 7.340584754943848 -13.53895568847656 1.635684967041016 -8.768835067749023 -0.2659449577331543 C -7.178895950317383 -0.8997831344604492 -4.528541564941406 -1.111114025115967 -1.702000737190247 -1.111114025115967 Z" stroke="none" fill="#707070"/>
      </g>
      <g id="Path_2" data-name="Path 2" transform="translate(22.797 13)" fill="#8cc63e">
        <path d="M 24.77390480041504 4.89614200592041 L -7.142284393310547 4.89614200592041 C -7.414949893951416 4.740792274475098 -8.163652420043945 4.297635555267334 -8.878125190734863 3.726062059402466 C -9.916335105895996 2.895482063293457 -10.46383476257324 2.119791984558105 -10.38023471832275 1.597862005233765 C -10.31918525695801 1.216761946678162 -9.822774887084961 0.5065319538116455 -7.184055328369141 0.03171194717288017 C -4.813615322113037 -0.3948380649089813 -0.7877650856971741 -0.6111080646514893 4.781654834747314 -0.6111080646514893 C 13.1725492477417 -0.6111080646514893 22.58686637878418 -0.1111818104982376 24.77390480041504 0.01172160543501377 L 24.77390480041504 4.89614200592041 Z" stroke="none"/>
        <path d="M 4.781654834747314 -0.1111080646514893 C -0.7581548690795898 -0.1111080646514893 -4.754215240478516 0.1025118827819824 -7.095514297485352 0.5238020420074463 C -9.748224258422852 1.001142024993896 -9.885444641113281 1.6701819896698 -9.886524200439453 1.676881909370422 C -9.916015625 1.860551953315735 -9.679965972900391 2.441971778869629 -8.575534820556641 3.32781195640564 C -7.967266082763672 3.815688848495483 -7.329168319702148 4.2083740234375 -7.008304595947266 4.39614200592041 L 24.27390480041504 4.39614200592041 L 24.27390480041504 0.4848294258117676 C 21.43271827697754 0.3298783302307129 12.65381240844727 -0.1111080646514893 4.781654834747314 -0.1111080646514893 M 4.781655788421631 -1.111112594604492 C 14.42529010772705 -1.111112594604492 25.27390480041504 -0.4603879451751709 25.27390480041504 -0.4603879451751709 L 25.27390480041504 5.39614200592041 L -7.272615432739258 5.39614200592041 C -7.272615432739258 5.39614200592041 -15.40923500061035 1.003741979598999 -7.272615432739258 -0.4603879451751709 C -4.560566902160645 -0.9484014511108398 -0.03971958160400391 -1.111112594604492 4.781655788421631 -1.111112594604492 Z" stroke="none" fill="#707070"/>
      </g>
      <g id="Path_3" data-name="Path 3" transform="translate(21.675 29.903)" fill="#8cc63e">
        <path d="M 25.89551734924316 6.388887882232666 L -7.008837223052979 6.388887882232666 C -7.301297664642334 6.189766407012939 -8.085000991821289 5.63463306427002 -8.825843811035156 4.922127723693848 C -9.951773643493652 3.83926796913147 -10.49989318847656 2.848987817764282 -10.36923313140869 2.133687973022461 C -10.21439361572266 1.286027908325195 -9.068533897399902 0.6096779108047485 -7.055543422698975 0.1777578890323639 C -4.615943431854248 -0.3456921279430389 -0.4698134362697601 -0.611112117767334 5.267686367034912 -0.611112117767334 C 13.9430685043335 -0.611112117767334 23.67986869812012 0.007111744955182076 25.89551734924316 0.155797466635704 L 25.89551734924316 6.388887882232666 Z" stroke="none"/>
        <path d="M 5.267688274383545 -0.111112117767334 C -0.4346113204956055 -0.111112117767334 -4.545451164245605 0.1505579948425293 -6.950660705566406 0.6666378974914551 C -8.672431945800781 1.036067962646484 -9.766511917114258 1.617987871170044 -9.877321243286133 2.223277807235718 C -9.973821640014648 2.750317811965942 -9.455011367797852 3.620817899703979 -8.489511489868164 4.551877975463867 C -7.860330581665039 5.158610820770264 -7.195234298706055 5.64924955368042 -6.853000640869141 5.888887882232666 L 25.3955192565918 5.888887882232666 L 25.3955192565918 0.6238269805908203 C 22.51152801513672 0.4358277320861816 13.419358253479 -0.111112117767334 5.267688274383545 -0.111112117767334 M 5.267684459686279 -1.111112117767334 C 15.21042156219482 -1.111112117767334 26.3955192565918 -0.3111119270324707 26.3955192565918 -0.3111119270324707 L 26.3955192565918 6.888887882232666 L -7.160451889038086 6.888887882232666 C -7.160451889038086 6.888887882232666 -15.54944229125977 1.488887786865234 -7.160451889038086 -0.3111119270324707 C -4.364292144775391 -0.9110755920410156 0.2967710494995117 -1.111112117767334 5.267684459686279 -1.111112117767334 Z" stroke="none" fill="#707070"/>
      </g>
      <g id="Path_4" data-name="Path 4" transform="translate(48.071 30.333) rotate(90)" fill="#8cc63e">
        <path d="M 10.94687938690186 7.00041389465332 C 7.576409339904785 7.00041389465332 5.057319164276123 6.755274295806885 3.459599256515503 6.271804332733154 C 1.995399355888367 5.828733921051025 1.064309358596802 5.105894088745117 0.6921992897987366 4.123373985290527 C 0.1601030975580215 2.718419075012207 0.8703228831291199 1.097535490989685 1.179058432579041 0.5000041127204895 L 22.69232940673828 0.5000041127204895 L 22.69232940673828 6.302976131439209 C 21.15348052978516 6.469339370727539 15.85556316375732 7.00041389465332 10.94687938690186 7.00041389465332 Z" stroke="none"/>
        <path d="M 1.491147994995117 1.000004291534424 C 1.188688278198242 1.660989761352539 0.7598781585693359 2.895801067352295 1.161149978637695 3.949873924255371 C 1.476339340209961 4.777833938598633 2.298379898071289 5.398024082183838 3.604419708251953 5.793233871459961 C 5.155149459838867 6.262484073638916 7.625509262084961 6.50041389465332 10.94687938690186 6.50041389465332 C 15.43406677246094 6.50041389465332 20.25237274169922 6.053895473480225 22.19232940673828 5.853065490722656 L 22.19232940673828 1.000004291534424 L 1.491147994995117 1.000004291534424 M 0.8844699859619141 3.814697265625e-06 L 23.19232940673828 3.814697265625e-06 L 23.19232940673828 6.750373840332031 C 23.19232940673828 6.750373840332031 8.891757011413574 8.437963485717773 3.314788818359375 6.750373840332031 C -2.262170791625977 5.062784194946289 0.8844699859619141 3.814697265625e-06 0.8844699859619141 3.814697265625e-06 Z" stroke="none" fill="#707070"/>
      </g>
      <g id="Path_5" data-name="Path 5" transform="translate(22.797 47.377)" fill="#8cc63e">
        <path d="M 24.77390670776367 5.648444652557373 L -7.129273414611816 5.648444652557373 C -7.410327911376953 5.469443798065186 -8.162782669067383 4.97096586227417 -8.876863479614258 4.330534934997559 C -9.951562881469727 3.366674661636353 -10.48348331451416 2.49153470993042 -10.37464332580566 1.866344690322876 C -10.24261283874512 1.107914686203003 -9.135912895202637 0.4988747537136078 -7.174203395843506 0.1050647422671318 C -4.806943416595459 -0.3701552450656891 -0.78441321849823 -0.6111152768135071 4.781656742095947 -0.6111152768135071 C 13.174729347229 -0.6111152768135071 22.59382247924805 -0.05286140367388725 24.77390670776367 0.08383514732122421 L 24.77390670776367 5.648444652557373 Z" stroke="none"/>
        <path d="M 4.781654834747314 -0.1111154556274414 C -0.7514047622680664 -0.1111154556274414 -4.740824699401855 0.1265549659729004 -7.075794219970703 0.5952847003936768 C -9.039054870605469 0.9894046783447266 -9.812675476074219 1.554494857788086 -9.882024765014648 1.951924800872803 C -9.940525054931641 2.287144660949707 -9.622135162353516 2.987884759902954 -8.553115844726562 3.949244737625122 C -7.948028564453125 4.493395805358887 -7.310380935668945 4.933260440826416 -6.981838226318359 5.148444652557373 L 24.27390480041504 5.148444652557373 L 24.27390480041504 0.5539054870605469 C 21.44137954711914 0.3814711570739746 12.65896511077881 -0.1111154556274414 4.781654834747314 -0.1111154556274414 M 4.781655788421631 -1.111110687255859 C 14.42529010772705 -1.111110687255859 25.27390480041504 -0.385155200958252 25.27390480041504 -0.385155200958252 L 25.27390480041504 6.148444652557373 L -7.272615432739258 6.148444652557373 C -7.272615432739258 6.148444652557373 -15.40923500061035 1.248244762420654 -7.272615432739258 -0.385155200958252 C -4.560566902160645 -0.929588794708252 -0.03971958160400391 -1.111110687255859 4.781655788421631 -1.111110687255859 Z" stroke="none" fill="#707070"/>
      </g>
      <g id="Path_6" data-name="Path 6" transform="matrix(0.017, 1, -1, 0.017, 59.167, 11.986)" fill="#8cc63e">
        <path d="M 4.247450351715088 5.975105762481689 C 3.958930969238281 5.833094596862793 3.085515260696411 5.387895107269287 2.246516227722168 4.806150913238525 C 1.059396147727966 3.983041048049927 0.4197561144828796 3.216851234436035 0.4915861189365387 2.704031229019165 C 0.5358561277389526 2.388041019439697 0.9884161353111267 1.59636116027832 4.226766109466553 1.071211099624634 C 7.150966167449951 0.5970111489295959 12.23737621307373 0.3565611243247986 19.34469604492188 0.3565611243247986 C 28.70792007446289 0.3565611243247986 38.76691055297852 0.7831714749336243 41.04790115356445 0.885668933391571 L 41.03713989257812 5.808391571044922 L 4.247450351715088 5.975105762481689 Z" stroke="none"/>
        <path d="M 19.34469604492188 0.8565611839294434 C 12.26413536071777 0.8565611839294434 7.204656600952148 1.094830989837646 4.306804656982422 1.564761161804199 C 1.221565246582031 2.065091133117676 0.9877166748046875 2.766521215438843 0.98675537109375 2.773381233215332 C 0.9685554504394531 2.903051137924194 1.211536407470703 3.478161096572876 2.522037506103516 4.388761043548584 C 3.253093719482422 4.896728038787842 4.015575408935547 5.299065589904785 4.363977432250977 5.474567890167236 L 40.53822708129883 5.310642242431641 L 40.54685211181641 1.363994598388672 C 37.57337188720703 1.234356880187988 28.15068054199219 0.8565611839294434 19.34469604492188 0.8565611839294434 M 19.34469223022461 -0.1434345245361328 C 30.06700706481934 -0.1434345245361328 41.54894638061523 0.4081611633300781 41.54894638061523 0.4081611633300781 L 41.53605651855469 6.306131362915039 L 4.133834838867188 6.475621223449707 C 4.133834838867188 6.475621223449707 -5.207054138183594 2.094531059265137 4.146724700927734 0.5776610374450684 C 7.51508903503418 0.03142881393432617 13.31057739257812 -0.1434345245361328 19.34469223022461 -0.1434345245361328 Z" stroke="none" fill="#707070"/>
      </g>
      <g id="Path_8" data-name="Path 8" transform="translate(76.174 32.792) rotate(180)" fill="#8cc63e">
        <path d="M 19.31027984619141 20.40340995788574 L 0.5317437052726746 20.40340995788574 C 0.6048296689987183 19.30533981323242 0.8102156519889832 16.62994384765625 1.235579967498779 13.72443008422852 C 1.943547248840332 8.888622283935547 2.933222770690918 5.57716178894043 4.101177215576172 4.130636215209961 C 5.246334552764893 3.714240312576294 15.84217739105225 0.519966721534729 16.73045921325684 0.5002096891403198 L 16.76206016540527 0.5000097155570984 C 16.81439018249512 0.5000097155570984 16.85872840881348 0.501808226108551 16.89603042602539 0.5046018958091736 C 16.80130577087402 0.653680145740509 16.59231948852539 0.917771577835083 16.13178062438965 1.347029685974121 C 15.62576961517334 1.818649649620056 14.99924945831299 2.318559646606445 14.54179000854492 2.683569669723511 C 14.21191120147705 2.946784257888794 13.98359870910645 3.128962516784668 13.83555507659912 3.275489568710327 C 12.05981826782227 3.662773370742798 10.30015182495117 4.096106052398682 8.866979598999023 4.499259471893311 C 4.739109992980957 5.660439491271973 4.059360027313232 6.334029674530029 3.939689874649048 6.888979911804199 C 3.764529943466187 7.701709747314453 3.520079851150513 8.718500137329102 3.261279821395874 9.794989585876465 C 2.886889934539795 11.35227966308594 2.499749898910522 12.96258926391602 2.241529941558838 14.28004932403564 C 1.839349865913391 16.33195877075195 1.895979881286621 16.88954925537109 2.141180038452148 17.20067977905273 C 2.261240005493164 17.35301971435547 2.439129829406738 17.44038009643555 2.629259824752808 17.44038009643555 C 2.642589807510376 17.44038009643555 2.655719995498657 17.43997955322266 2.669379949569702 17.43910980224609 C 3.93257999420166 17.35915946960449 5.500659942626953 17.3186092376709 7.330060005187988 17.3186092376709 C 12.21508979797363 17.3186092376709 17.69756889343262 17.60817527770996 19.31027984619141 17.6998348236084 L 19.31027984619141 20.40340995788574 Z" stroke="none"/>
        <path d="M 15.43941593170166 1.297372817993164 C 12.4835033416748 2.06641960144043 5.761676788330078 4.081907272338867 4.406085968017578 4.552343368530273 C 2.354438781738281 7.277337074279785 1.363016128540039 15.72092819213867 1.064455032348633 19.90340995788574 L 18.81027984619141 19.90340995788574 L 18.81027984619141 18.17279815673828 C 16.77993774414062 18.06215667724609 11.80208396911621 17.8185863494873 7.330109596252441 17.8186092376709 C 5.51101016998291 17.81861877441406 3.953550338745117 17.85882949829102 2.699550628662109 17.93819999694824 C 2.675630569458008 17.9396800994873 2.652610778808594 17.94038009643555 2.62925910949707 17.94038009643555 C 2.284980773925781 17.94038009643555 1.963939666748047 17.7835693359375 1.748470306396484 17.51016044616699 C 1.190469741821289 16.80210876464844 1.343990325927734 15.63095951080322 2.775129318237305 9.678119659423828 C 3.033220291137695 8.604579925537109 3.277000427246094 7.59058952331543 3.450920104980469 6.7835693359375 C 3.637140274047852 5.920069694519043 4.561809539794922 5.190449714660645 8.737090110778809 4.016349792480469 C 10.5796537399292 3.498220443725586 12.4876537322998 3.059362411499023 13.60179328918457 2.814790725708008 C 13.7725305557251 2.65770149230957 13.98381233215332 2.489124298095703 14.22994995117188 2.292730331420898 C 14.59366226196289 2.002519607543945 15.03157997131348 1.653097152709961 15.43941593170166 1.297372817993164 M 16.76206398010254 5.7220458984375e-06 C 19.44009399414062 5.7220458984375e-06 13.65452575683594 3.810398101806641 14.15097999572754 3.718278884887695 C 14.3309907913208 3.684896469116211 4.710741996765137 5.685376167297363 4.428449630737305 6.994379997253418 C 3.713481903076172 10.31189632415771 1.855531692504883 16.98962783813477 2.637809753417969 16.94010925292969 C 8.82151985168457 16.5486888885498 19.81027984619141 17.22822952270508 19.81027984619141 17.22822952270508 L 19.81027984619141 20.90340995788574 L 0 20.90340995788574 C 0 20.90340995788574 0.7080402374267578 7.314779281616211 3.793909072875977 3.718278884887695 C 3.902159690856934 3.591829299926758 15.70341968536377 0.01348876953125 16.7237606048584 0.0002593994140625 C 16.73661041259766 9.1552734375e-05 16.74958419799805 5.7220458984375e-06 16.76206398010254 5.7220458984375e-06 Z" stroke="none" fill="#707070"/>
      </g>
      <g id="Path_9" data-name="Path 9" transform="translate(80.693 53.641) rotate(180)" fill="#8cc63e">
        <path d="M 23.69270706176758 22.80784225463867 C 23.69256591796875 22.80784225463867 23.69245338439941 22.80784225463867 23.69231224060059 22.80784225463867 C 23.67634201049805 22.80784225463867 23.65974235534668 22.80776214599609 23.6432933807373 22.80759239196777 C 22.35503578186035 22.79440498352051 6.960575103759766 19.13057327270508 5.629817485809326 18.72702407836914 C 3.95859432220459 17.12379837036133 2.545354127883911 13.41768932342529 1.538972854614258 7.995391845703125 C 0.9291937351226807 4.709939479827881 0.6394273042678833 1.688468933105469 0.5402510762214661 0.5000020861625671 L 27.50078201293945 0.5000020861625671 L 27.50078201293945 3.620641946792603 C 25.49048614501953 3.712033748626709 17.47722244262695 4.054652214050293 10.36062335968018 4.054652214050293 C 7.768322944641113 4.054652214050293 5.545312881469727 4.009282112121582 3.753342866897583 3.919802188873291 C 3.740722894668579 3.919172048568726 3.728612899780273 3.918882131576538 3.716322898864746 3.918882131576538 C 3.494452953338623 3.918882131576538 3.290692806243896 4.022181987762451 3.15729284286499 4.202291965484619 C 2.649662971496582 4.88768196105957 3.126832962036133 6.850672245025635 4.818492889404297 12.4015417098999 C 5.184212684631348 13.60160160064697 5.5296630859375 14.73511219024658 5.777052879333496 15.64070224761963 C 5.929722785949707 16.19915199279785 6.596673011779785 16.9067325592041 12.6160831451416 18.24250221252441 C 14.65652275085449 18.6953067779541 17.16701507568359 19.18243217468262 19.69675064086914 19.61655807495117 C 19.8906421661377 19.77560234069824 20.21473121643066 19.97960662841797 20.72855377197266 20.30305290222168 C 21.3704833984375 20.7071418762207 22.24964332580566 21.26055145263672 22.9660530090332 21.78556251525879 C 23.67361259460449 22.30408477783203 23.97643089294434 22.61525535583496 24.1055736541748 22.7817440032959 C 24.01528930664062 22.79594802856445 23.88288879394531 22.80784225463867 23.69270706176758 22.80784225463867 Z" stroke="none"/>
        <path d="M 22.61064338684082 22.14538383483887 C 22.58470916748047 22.12655067443848 22.55825996398926 22.10746002197266 22.53114318847656 22.0880012512207 C 21.85761260986328 21.60472297668457 21.08388328552246 21.11763191223145 20.46217346191406 20.72624206542969 C 20.15018272399902 20.52983283996582 19.88073348999023 20.3602123260498 19.68485260009766 20.22898292541504 C 19.62712097167969 20.19030380249023 19.5570125579834 20.14333152770996 19.48337554931641 20.08719825744629 C 16.98953056335449 19.65735244750977 14.52113056182861 19.17742156982422 12.50771331787109 18.73062133789062 C 6.202822685241699 17.33148193359375 5.510902881622314 16.56322288513184 5.294733047485352 15.77246189117432 C 5.049252986907959 14.87390232086182 4.704843044281006 13.74378204345703 4.340212821960449 12.54731178283691 C 2.508272886276245 6.536131858825684 2.104702949523926 4.783381938934326 2.755502939224243 3.904711961746216 C 2.984172821044922 3.595962047576904 3.334383010864258 3.418882131576538 3.716322898864746 3.418882131576538 C 3.73723292350769 3.418882131576538 3.75782299041748 3.419382095336914 3.778272867202759 3.420422077178955 C 5.561872959136963 3.509492158889771 7.776493072509766 3.554651975631714 10.36062335968018 3.554651975631714 C 16.99503898620605 3.554651975631714 24.4122142791748 3.256331205368042 27.00078201293945 3.142489671707153 L 27.00078201293945 1.000002026557922 L 1.086104512214661 1.000002026557922 C 1.216182827949524 2.413969278335571 1.503161430358887 5.064873695373535 2.032322883605957 7.913562297821045 C 3.001853704452515 13.13289546966553 4.33277702331543 16.70768547058105 5.889434337615967 18.28106498718262 C 6.719946384429932 18.51204109191895 10.18649101257324 19.36617088317871 14.53752326965332 20.37641143798828 C 18.74549102783203 21.35344314575195 21.30208206176758 21.89919662475586 22.61064338684082 22.14538383483887 M 23.69227409362793 23.3078441619873 C 23.67463302612305 23.30784225463867 23.65630531311035 23.30774879455566 23.63814353942871 23.30756187438965 C 22.19595336914062 23.29280281066895 5.5155029296875 19.30285263061523 5.36249303817749 19.16187286376953 C 1.000772953033447 15.15167236328125 2.913818434535642e-06 2.075500560749788e-06 2.913818434535642e-06 2.075500560749788e-06 L 28.00078201293945 2.075500560749788e-06 L 28.00078201293945 4.097912311553955 C 28.00078392028809 4.097912311553955 12.46875190734863 4.855622291564941 3.728402853012085 4.419182300567627 C 2.622895956039429 4.364000797271729 5.248813152313232 11.80980110168457 6.259382724761963 15.50893211364746 C 6.658397197723389 16.96854400634766 20.25545692443848 19.19894027709961 20.00166320800781 19.16187286376953 C 19.30000305175781 19.05916213989258 27.47754669189453 23.30816459655762 23.69227409362793 23.3078441619873 Z" stroke="none" fill="#707070"/>
      </g>
      <g id="Path_10" data-name="Path 10" transform="matrix(0.017, 1, -1, 0.017, 89.465, 9.645)" fill="#8cc63e">
        <path d="M 4.518052577972412 8.169610023498535 C 4.197109222412109 7.970500469207764 3.256982088088989 7.365525245666504 2.363483428955078 6.57957935333252 C 1.032063484191895 5.408439159393311 0.3714334964752197 4.330479145050049 0.5032835006713867 3.544269323348999 C 0.6650735139846802 2.579549312591553 2.044513463973999 1.805799245834351 4.492483615875244 1.306689262390137 C 7.584623336791992 0.6762292981147766 12.96651363372803 0.3565692901611328 20.48863410949707 0.3565692901611328 C 30.45100021362305 0.3565692901611328 41.15743637084961 0.9300292730331421 43.50424194335938 1.062935829162598 L 43.49228668212891 7.94754695892334 L 4.518052577972412 8.169610023498535 Z" stroke="none"/>
        <path d="M 20.48863410949707 0.8565692901611328 C 12.99996376037598 0.8565692901611328 7.651693344116211 1.172849178314209 4.592372894287109 1.796609401702881 C 2.460231781005859 2.231329441070557 1.115955352783203 2.915489196777344 0.9964447021484375 3.626739263534546 C 0.8973617553710938 4.216349601745605 1.528022766113281 5.176499366760254 2.683452606201172 6.195119380950928 C 3.459304809570312 6.879100322723389 4.275741577148438 7.424006462097168 4.660743713378906 7.6687912940979 L 42.99314880371094 7.450384616851807 L 43.00341796875 1.535768032073975 C 39.93440628051758 1.366910457611084 29.88012504577637 0.8565692901611328 20.48863410949707 0.8565692901611328 M 20.48863792419434 -0.143435001373291 C 31.84457969665527 -0.143435001373291 44.00506210327148 0.591069221496582 44.00506210327148 0.591069221496582 L 43.99142456054688 8.444709777832031 L 4.378944396972656 8.670409202575684 C 4.378944396972656 8.670409202575684 -5.513935089111328 2.836599349975586 4.392593383789062 0.8167691230773926 C 7.96000862121582 0.08940982818603516 14.09794235229492 -0.143435001373291 20.48863792419434 -0.143435001373291 Z" stroke="none" fill="#707070"/>
      </g>
      <g id="Path_11" data-name="Path 11" transform="translate(95.017 10.698)" fill="#8cc63e">
        <path d="M 18.7436580657959 7.198065280914307 L -7.683467388153076 7.198065280914307 C -8.66651439666748 6.289756774902344 -10.71908664703369 3.967404842376709 -10.34284210205078 2.271315097808838 C -10.14462184906006 1.377755165100098 -9.267332077026367 0.6975951194763184 -7.735332012176514 0.2497151345014572 C -5.781472206115723 -0.3214848637580872 -2.449331998825073 -0.6111148595809937 2.168547868728638 -0.6111148595809937 C 9.074127197265625 -0.6111148595809937 16.81669998168945 0.05045614764094353 18.7436580657959 0.2254675179719925 L 18.7436580657959 7.198065280914307 Z" stroke="none"/>
        <path d="M 2.168539762496948 -0.1111149787902832 C -2.401830196380615 -0.1111149787902832 -5.686770439147949 0.171755313873291 -7.595040321350098 0.7296252250671387 C -8.938310623168945 1.122334957122803 -9.698520660400391 1.677225112915039 -9.854559898376465 2.378905057907104 C -10.1619930267334 3.761348247528076 -8.410250663757324 5.800951957702637 -7.48369026184082 6.698065280914307 L 18.24364852905273 6.698065280914307 L 18.24364852905273 0.6827874183654785 C 15.76264572143555 0.4647073745727539 8.601537704467773 -0.1111149787902832 2.168539762496948 -0.1111149787902832 M 2.16854453086853 -1.111110210418701 C 10.20407390594482 -1.111110210418701 19.24364852905273 -0.2301950454711914 19.24364852905273 -0.2301950454711914 L 19.24364852905273 7.698064804077148 L -7.875639915466309 7.698064804077148 C -7.875639915466309 7.698064804077148 -14.65546035766602 1.751875162124634 -7.875639915466309 -0.2301950454711914 C -5.615835189819336 -0.890841007232666 -1.848852157592773 -1.111110210418701 2.16854453086853 -1.111110210418701 Z" stroke="none" fill="#707070"/>
      </g>
    </g>
  </g>
</svg>
